<?xml version="1.0" encoding="utf-8"?>
<!-- Generator: Adobe Illustrator 22.1.0, SVG Export Plug-In . SVG Version: 6.00 Build 0)  -->
<svg version="1.1" id="圖層_1" xmlns="http://www.w3.org/2000/svg" xmlns:xlink="http://www.w3.org/1999/xlink" x="0px" y="0px"
	 viewBox="0 0 30 30" enable-background="new 0 0 30 30" xml:space="preserve">
<g>
	<path fill="#00AEFF" d="M18.5,0H2.6C1.2,0,0,1.2,0,2.6V8c0,1.5,1.2,2.6,2.6,2.6h0.9v2.6c0,0.8,0.9,1.2,1.5,0.6l3.3-3.3H19
		c1.2,0,2.1-0.9,2.1-2.1V2.6C21.2,1.2,20,0,18.5,0z"/>
	<path fill="#FF4F81" d="M27.4,7.1H11.5c-0.3,0-0.6,0.1-0.9,0.2c-1,0.4-1.8,1.3-1.8,2.5V15c0,1.1,0.7,2.1,1.8,2.5
		c0.3,0.1,0.6,0.2,0.9,0.2h10.2l3.3,3.3c0.5,0.6,1.5,0.2,1.5-0.6v-2.6h0.9c1.5,0,2.6-1.2,2.6-2.6V9.7C30,8.3,28.8,7.1,27.4,7.1z"/>
	<path fill="#FFC168" d="M18.5,15.9H2.6c-1.5,0-2.6,1.2-2.6,2.6v5.1c0,1.6,1.3,2.9,2.9,2.9h0.7v2.6c0,0.8,0.9,1.2,1.5,0.6l3.3-3.3
		h10.2c1.5,0,2.6-1.2,2.6-2.6v-5.3C21.2,17.1,20,15.9,18.5,15.9z"/>
	<path fill="#000222" d="M15.9,20.3c0,0.5-0.4,0.9-0.9,0.9H6.2c-0.5,0-0.9-0.4-0.9-0.9c0-0.5,0.4-0.9,0.9-0.9H15
		C15.5,19.4,15.9,19.8,15.9,20.3z"/>
	<path fill="#000222" d="M24.7,11c0,0.5-0.4,0.9-0.9,0.9H15c-0.5,0-0.9-0.4-0.9-0.9c0-0.5,0.4-0.9,0.9-0.9h8.8
		C24.3,10.1,24.7,10.5,24.7,11z"/>
	<path fill="#000222" d="M15.9,4.4c0,0.5-0.4,0.9-0.9,0.9H6.2c-0.5,0-0.9-0.4-0.9-0.9c0-0.5,0.4-0.9,0.9-0.9H15
		C15.5,3.5,15.9,3.9,15.9,4.4z"/>
</g>
</svg>
