<?xml version="1.0" encoding="utf-8"?>
<!-- Generator: Adobe Illustrator 21.1.0, SVG Export Plug-In . SVG Version: 6.00 Build 0)  -->
<svg version="1.1" id="Layer_1" xmlns="http://www.w3.org/2000/svg" xmlns:xlink="http://www.w3.org/1999/xlink" x="0px" y="0px"
	 viewBox="0 0 512 445.5" style="enable-background:new 0 0 512 445.5;" xml:space="preserve">
<style type="text/css">
	.st0{fill:#FF6464;}
	.st1{fill:#D2555A;}
	.st2{fill:#FF8B8B;}
	.st3{fill:#FFC1C1;}
</style>
<g>
	<path class="st0" d="M0,140.4C0,62.9,62.9,0,140.4,0c34.4,0,65.9,12.4,90.3,32.9c14.7,12.3,36,12.3,50.7,0
		C305.7,12.4,337.2,0,371.6,0C449.1,0,512,62.9,512,140.4v-4.1c0,136.1-165.6,258.9-230.4,301.8c-15.5,10.3-35.7,10.3-51.2,0
		C165.6,395.2,0,272.4,0,136.3"/>
	<g>
		<path class="st1" d="M0,140.4c0-0.6,0.1-1.2,0.1-1.8c0-0.8-0.1-1.6-0.1-2.4V140.4z"/>
		<path class="st1" d="M114.8,149.6c0,0.6-0.1,1.3-0.1,1.9v-4.5C114.8,147.9,114.8,148.8,114.8,149.6C115.4,82.7,144.3,26.3,184,7.1
			C170.3,2.6,155.6,0,140.4,0C63.4,0,1,61.9,0.1,138.6C2,273.8,166,395.4,230.4,438.1c6.6,4.4,14.1,6.8,21.6,7.4
			C198.9,385.7,116,272.9,114.8,149.6z"/>
	</g>
	<circle class="st2" cx="449.5" cy="120.8" r="32"/>
	<circle class="st3" cx="408.4" cy="59.7" r="20"/>
</g>
</svg>
