<?xml version="1.0" encoding="utf-8"?>
<!-- Generator: Adobe Illustrator 21.1.0, SVG Export Plug-In . SVG Version: 6.00 Build 0)  -->
<svg version="1.1" id="Layer_1" xmlns="http://www.w3.org/2000/svg" xmlns:xlink="http://www.w3.org/1999/xlink" x="0px" y="0px"
	 viewBox="0 0 512 512" style="enable-background:new 0 0 512 512;" xml:space="preserve">
<path d="M505.5,64.9l-149.3-64c-4.4-1.9-9.5-0.6-12.5,3.1L301,57.4c-2,2.5-2.8,5.8-2.1,9c0.6,3,2.6,5.4,5.2,6.9l-134,50.2
	c-11.2,4.2-20.8,12.2-27,22.5l-44.3,73.8c-9.4,15.7-10.2,34.9-2,51.3l3.1,6.3H53.3c-5.9,0-10.7,4.8-10.7,10.7v202.7h-32
	c-5.9,0-10.7,4.8-10.7,10.7S4.8,512,10.7,512h362.7c5.9,0,10.7-4.8,10.7-10.7s-4.8-10.7-10.7-10.7h-32v-109c0-3.6-1.9-7.1-4.9-9
	c-3.1-1.9-7-2.2-10.3-0.6c-11.7,5.5-20.3,8.3-24.4,9.5c-0.9,0.3-1.7,0.6-2.5,1.1l-69.5,41.7c-11.1,6.7-23.7,10.2-36.5,10.2
	c-23.6,0-45.6-11.7-59.1-31.7c-10.7-16-14.4-35.3-10.4-54.1c4-18.8,15.1-34.9,31.4-45.2l10.1-6.4c7.3-4.6,13.8-8.7,19.8-12.3
	c4.1-2.6,6-7.6,4.6-12.2c-2.6-8.6-7-16.1-11.2-22c16.3-7,38.2-19.7,49.3-32.6c0.1,0,0.1,0.1,0.2,0.1c2.4,1.4,5.1,2.9,8.3,4.4
	c0.2,0.1,0.3,0.2,0.5,0.3c0,0,0,0,0.1,0c7.9,3.8,17.9,7.7,29.6,9.9c-12.5,15.4-25.2,34.5-29.8,47.2c-8.8,4-27.2,14.4-70,41.6
	c-11.4,7.2-19.1,18.5-21.9,31.6c-2.8,13.2-0.2,26.6,7.3,37.9c9.6,14.3,25.3,22.2,41.3,22.2c8.7,0,17.6-2.3,25.6-7.1l73.3-44
	c11.5-2.8,68.5-19.9,111.7-89.7c33.9-54.8,52.9-98.9,60.8-118.8l1.2,0.6c4.5,2.3,9.3,3.4,14.3,3.4c8.2,0,16.3-3.3,22.3-9
	c6.3-6.1,9.7-14.2,9.7-23V74.7C512,70.4,509.5,66.6,505.5,64.9z"/>
</svg>
